PathFileType	4	(X/Y/Z)	C:\Users\86182\Documents\cortex\Trimmed_M4_H12.trc
DataRate	CameraRate	NumFrames	NumMarkers	Units	OrigDataRate	OrigDataStartFrame	OrigNumFrames
100.00	100.00	       154	2	mm	100.00	541	       901
Frame#	Time	gripper			box			
		X1	Y1	Z1	X2	Y2	Z2	

541	5.400	276.02740	151.03903	292.30725	278.00766	147.64935	155.98773	
542	5.410	276.02557	151.04103	292.30844	278.00638	147.65096	155.98877	
543	5.420	276.02380	151.04399	292.30853	278.00476	147.65211	155.98959	
544	5.430	276.02118	151.04715	292.30762	278.00287	147.65266	155.99007	
545	5.440	276.01666	151.04959	292.30637	278.00076	147.65268	155.99026	
546	5.450	276.01025	151.05080	292.30545	277.99881	147.65234	155.99023	
547	5.460	276.00348	151.05113	292.30530	277.99768	147.65182	155.99005	
548	5.470	275.99884	151.05142	292.30591	277.99783	147.65125	155.98972	
549	5.480	275.99844	151.05217	292.30704	277.99948	147.65070	155.98929	
550	5.490	276.00238	151.05307	292.30841	278.00247	147.65030	155.98883	
551	5.500	276.00925	151.05344	292.30972	278.00632	147.65012	155.98846	
552	5.510	276.01743	151.05281	292.31058	278.01031	147.65021	155.98822	
553	5.520	276.02585	151.05121	292.31061	278.01367	147.65054	155.98816	
554	5.530	276.03391	151.04901	292.30963	278.01563	147.65097	155.98825	
555	5.540	276.04129	151.04678	292.30746	278.01584	147.65129	155.98840	
556	5.550	276.04761	151.04500	292.30444	278.01425	147.65140	155.98857	
557	5.560	276.05212	151.04387	292.30121	278.01108	147.65132	155.98877	
558	5.570	276.05417	151.04337	292.29865	278.00708	147.65120	155.98898	
559	5.580	276.05322	151.04333	292.29758	278.00305	147.65118	155.98926	
560	5.590	276.04916	151.04343	292.29840	277.99957	147.65137	155.98965	
561	5.600	276.04251	151.04330	292.30112	277.99673	147.65178	155.99008	
562	5.610	276.03473	151.04282	292.30511	277.99451	147.65234	155.99057	
563	5.620	276.02759	151.04205	292.30936	277.99289	147.65285	155.99100	
564	5.630	276.02252	151.04132	292.31265	277.99179	147.65308	155.99120	
565	5.640	276.02011	151.04077	292.31445	277.99121	147.65289	155.99112	
566	5.650	276.02008	151.04048	292.31458	277.99121	147.65233	155.99081	
567	5.660	276.02213	151.04056	292.31329	277.99219	147.65147	155.99026	
568	5.670	276.02597	151.04120	292.31094	277.99472	147.65038	155.98944	
569	5.680	276.03137	151.04254	292.30817	277.99933	147.64903	155.98837	
570	5.690	276.03815	151.04457	292.30548	278.00629	147.64758	155.98706	
571	5.700	276.04590	151.04701	292.30331	278.01535	147.64626	155.98569	
572	5.710	276.05374	151.04947	292.30185	278.02585	147.64539	155.98451	
573	5.720	276.06058	151.05147	292.30124	278.03668	147.64522	155.98373	
574	5.730	276.06543	151.05273	292.30133	278.04636	147.64595	155.98352	
575	5.740	276.06793	151.05330	292.30164	278.05328	147.64769	155.98404	
576	5.750	276.06848	151.05348	292.30157	278.05667	147.65033	155.98523	
577	5.760	276.06766	151.05371	292.30060	278.05667	147.65329	155.98679	
578	5.770	276.06564	151.05417	292.29846	278.05338	147.65579	155.98828	
579	5.780	276.06177	151.05447	292.29553	278.04675	147.65714	155.98938	
580	5.790	276.05508	151.05396	292.29272	278.03748	147.65717	155.98999	
581	5.800	276.04581	151.05241	292.29086	278.02747	147.65636	155.99026	
582	5.810	276.03577	151.05057	292.29059	278.01913	147.65544	155.99037	
583	5.820	276.02783	151.04958	292.29205	278.01437	147.65486	155.99043	
584	5.830	276.02460	151.05005	292.29489	278.01407	147.65477	155.99045	
585	5.840	276.02698	151.05173	292.29822	278.01804	147.65501	155.99033	
586	5.850	276.03394	151.05377	292.30103	278.02487	147.65530	155.99002	
587	5.860	276.04327	151.05547	292.30270	278.03244	147.65523	155.98944	
588	5.870	276.05286	151.05649	292.30298	278.03839	147.65456	155.98865	
589	5.880	276.06143	151.05695	292.30194	278.04105	147.65331	155.98775	
590	5.890	276.06876	151.05733	292.29977	278.03986	147.65176	155.98698	
591	5.900	276.07520	151.05815	292.29678	278.03568	147.65050	155.98657	
592	5.910	276.08075	151.05943	292.29358	278.03033	147.65002	155.98666	
593	5.920	276.08438	151.06059	292.29114	278.02582	147.65057	155.98724	
594	5.930	276.08459	151.06061	292.29053	278.02307	147.65218	155.98828	
595	5.940	276.08032	151.05879	292.29236	278.02219	147.65465	155.98972	
596	5.950	276.07202	151.05530	292.29630	278.02261	147.65779	155.99139	
597	5.960	276.06152	151.05115	292.30133	278.02380	147.66132	155.99329	
598	5.970	276.05124	151.04778	292.30618	278.02487	147.66469	155.99509	
599	5.980	276.04288	151.04613	292.30984	278.02469	147.66708	155.99646	
600	5.990	276.03729	151.04652	292.31177	278.02234	147.66788	155.99710	
601	6.000	276.03488	151.04872	292.31171	278.01804	147.66702	155.99698	
602	6.010	276.03564	151.05217	292.30969	278.01303	147.66516	155.99634	
603	6.020	276.03912	151.05624	292.30606	278.00916	147.66302	155.99545	
604	6.030	276.04453	151.06036	292.30145	278.00775	147.66115	155.99454	
605	6.040	276.05121	151.06407	292.29681	278.00977	147.65987	155.99365	
606	6.050	276.05859	151.06702	292.29318	278.01578	147.65945	155.99297	
607	6.060	276.06595	151.06900	292.29132	278.02570	147.66011	155.99255	
608	6.070	276.07233	151.06969	292.29132	278.03815	147.66177	155.99252	
609	6.080	276.07669	151.06882	292.29285	278.05069	147.66403	155.99280	
610	6.090	276.07822	151.06650	292.29535	278.06052	147.66620	155.99326	
611	6.100	276.07690	151.06337	292.29822	278.06598	147.66753	155.99358	
612	6.110	276.07397	151.06041	292.30096	278.06647	147.66750	155.99353	
613	6.120	276.07086	151.05847	292.30313	278.06235	147.66617	155.99310	
614	6.130	276.06851	151.05792	292.30450	278.05484	147.66397	155.99243	
615	6.140	276.06738	151.05861	292.30518	278.04599	147.66174	155.99185	
616	6.150	276.06775	151.06029	292.30527	278.03796	147.66049	155.99173	
617	6.160	276.06973	151.06282	292.30493	278.03259	147.66104	155.99237	
618	6.170	276.07315	151.06618	292.30423	278.03091	147.66370	155.99387	
619	6.180	276.07767	151.07025	292.30316	278.03287	147.66800	155.99596	
620	6.190	276.08304	151.07483	292.30176	278.03705	147.67291	155.99814	
621	6.200	276.08868	151.07948	292.29999	278.04132	147.67719	155.99988	
622	6.210	276.09338	151.08337	292.29831	278.04370	147.67973	156.00082	
623	6.220	276.09592	151.08556	292.29703	278.04315	147.68007	156.00079	
624	6.230	276.09561	151.08556	292.29645	278.03983	147.67830	156.00000	
625	6.240	276.09265	151.08350	292.29666	278.03500	147.67506	155.99872	
626	6.250	276.08768	151.07994	292.29755	278.03070	147.67142	155.99734	
627	6.260	276.08197	151.07550	292.29889	278.02890	147.66847	155.99619	
628	6.270	276.07700	151.07076	292.30026	278.03085	147.66702	155.99554	
629	6.280	276.07370	151.06639	292.30145	278.03650	147.66722	155.99542	
630	6.290	276.07236	151.06302	292.30237	278.04507	147.66882	155.99576	
631	6.300	276.07269	151.06099	292.30292	278.05530	147.67130	155.99634	
632	6.310	276.07471	151.06035	292.30295	278.06540	147.67397	155.99689	
633	6.320	276.07858	151.06113	292.30212	278.07312	147.67618	155.99725	
634	6.330	276.08444	151.06340	292.30023	278.07672	147.67747	155.99734	
635	6.340	276.09164	151.06688	292.29721	278.07541	147.67778	155.99722	
636	6.350	276.09888	151.07079	292.29358	278.06949	147.67717	155.99695	
637	6.360	276.10440	151.07410	292.29010	278.06012	147.67572	155.99658	
638	6.370	276.10663	151.07584	292.28769	278.04895	147.67357	155.99615	
639	6.380	276.10489	151.07553	292.28711	278.03836	147.67131	155.99585	
640	6.390	276.09961	151.07346	292.28864	278.03091	147.66983	155.99594	
641	6.400	276.09216	151.07039	292.29181	278.02838	147.66977	155.99652	
642	6.410	276.08426	151.06720	292.29581	278.03110	147.67122	155.99744	
643	6.420	276.07758	151.06444	292.29980	278.03781	147.67363	155.99850	
644	6.430	276.07358	151.06236	292.30292	278.04623	147.67609	155.99933	
645	6.440	276.07315	151.06123	292.30432	278.05411	147.67784	155.99973	
646	6.450	276.07639	151.06131	292.30380	278.05981	147.67853	155.99963	
647	6.460	276.08267	151.06267	292.30151	278.06271	147.67805	155.99915	
648	6.470	276.09094	151.06514	292.29797	278.06284	147.67665	155.99838	
649	6.480	276.09967	151.06824	292.29398	278.06104	147.67471	155.99756	
650	6.490	276.10715	151.07146	292.29047	278.05884	147.67276	155.99680	
651	6.500	276.11218	151.07423	292.28824	278.05798	147.67123	155.99615	
652	6.510	276.11417	151.07603	292.28760	278.05942	147.67039	155.99564	
653	6.520	276.11307	151.07642	292.28842	278.06320	147.67038	155.99524	
654	6.530	276.10910	151.07518	292.29047	278.06854	147.67110	155.99498	
655	6.540	276.10269	151.07245	292.29330	278.07394	147.67226	155.99484	
656	6.550	276.09470	151.06873	292.29645	278.07739	147.67334	155.99481	
657	6.560	276.08655	151.06480	292.29938	278.07721	147.67386	155.99487	
658	6.570	276.07974	151.06149	292.30164	278.07288	147.67351	155.99500	
659	6.580	276.07529	151.05940	292.30295	278.06509	147.67229	155.99512	
660	6.590	276.07391	151.05885	292.30319	278.05521	147.67050	155.99515	
661	6.600	276.07587	151.05991	292.30234	278.04504	147.66859	155.99512	
662	6.610	276.08069	151.06238	292.30066	278.03659	147.66719	155.99518	
663	6.620	276.08743	151.06580	292.29865	278.03162	147.66678	155.99542	
664	6.630	276.09485	151.06958	292.29672	278.03116	147.66762	155.99588	
665	6.640	276.10168	151.07312	292.29529	278.03516	147.66962	155.99649	
666	6.650	276.10678	151.07582	292.29453	278.04257	147.67223	155.99710	
667	6.660	276.10956	151.07738	292.29437	278.05151	147.67471	155.99745	
668	6.670	276.11002	151.07776	292.29468	278.06003	147.67636	155.99742	
669	6.680	276.10873	151.07721	292.29529	278.06638	147.67668	155.99692	
670	6.690	276.10626	151.07600	292.29602	278.06940	147.67538	155.99591	
671	6.700	276.10272	151.07426	292.29700	278.06900	147.67259	155.99445	
672	6.710	276.09784	151.07187	292.29828	278.06610	147.66876	155.99271	
673	6.720	276.09158	151.06882	292.29990	278.06247	147.66486	155.99103	
674	6.730	276.08478	151.06551	292.30164	278.06015	147.66220	155.98997	
675	6.740	276.07910	151.06277	292.30304	278.06046	147.66171	155.98994	
676	6.750	276.07623	151.06148	292.30371	278.06354	147.66347	155.99091	
677	6.760	276.07697	151.06204	292.30347	278.06818	147.66660	155.99246	
678	6.770	276.08112	151.06429	292.30225	278.07220	147.67006	155.99420	
679	6.780	276.08765	151.06764	292.30023	278.07361	147.67305	155.99585	
680	6.790	276.09525	151.07137	292.29767	278.07123	147.67516	155.99727	
681	6.800	276.10239	151.07469	292.29498	278.06543	147.67624	155.99838	
682	6.810	276.10773	151.07698	292.29251	278.05771	147.67625	155.99902	
683	6.820	276.11038	151.07787	292.29065	278.04965	147.67534	155.99915	
684	6.830	276.11014	151.07735	292.28964	278.04266	147.67389	155.99887	
685	6.840	276.10742	151.07570	292.28976	278.03793	147.67245	155.99844	
686	6.850	276.10294	151.07333	292.29102	278.03616	147.67148	155.99802	
687	6.860	276.09750	151.07062	292.29321	278.03751	147.67130	155.99777	
688	6.870	276.09198	151.06792	292.29590	278.04150	147.67204	155.99786	
689	6.880	276.08740	151.06567	292.29846	278.04700	147.67352	155.99823	
690	6.890	276.08472	151.06433	292.30035	278.05258	147.67519	155.99869	
691	6.900	276.08450	151.06404	292.30130	278.05685	147.67632	155.99896	
692	6.910	276.08652	151.06467	292.30127	278.05911	147.67651	155.99890	
693	6.920	276.09006	151.06598	292.30042	278.05936	147.67580	155.99847	
694	6.930	276.09448	151.06778	292.29904	278.05804	147.67444	155.99780	
